<?xml version="1.0" encoding="UTF-8"?>
<svg id="_レイヤー_1" data-name="レイヤー 1" xmlns="http://www.w3.org/2000/svg" xmlns:xlink="http://www.w3.org/1999/xlink" viewBox="0 0 911.154 911.154">
  <defs>
    <style>
      .cls-1 {
        fill: url(#_名称未設定グラデーション_180);
      }

      .cls-2 {
        fill: #20afba;
      }

      .cls-3 {
        fill: #e69319;
      }

      .cls-4 {
        fill: #3eb588;
      }

      .cls-5 {
        fill: #ca6d15;
      }

      .cls-6 {
        fill: #df8415;
      }

      .cls-7 {
        fill: #fdf7e7;
      }

      .cls-8 {
        fill: #f1ab1b;
      }

      .cls-9 {
        fill: #044e43;
      }

      .cls-10 {
        fill: #f5d5a2;
      }

      .cls-11 {
        fill: #fbf1d9;
      }
    </style>
    <linearGradient id="_名称未設定グラデーション_180" data-name="名称未設定グラデーション 180" x1="147.532" y1="167.679" x2="757.604" y2="777.751" gradientUnits="userSpaceOnUse">
      <stop offset="0" stop-color="#128cbd"/>
      <stop offset="1" stop-color="#5ca55e"/>
    </linearGradient>
  </defs>
  <rect class="cls-1" x="44.274" y="61.719" width="797.031" height="802.435" rx="156" ry="156"/>
  <path class="cls-9" d="M455.855,767.6c-11.119,0-22.141-.403-32.76-1.198-20.897-1.564-41.291-3.631-60.962-11.49-1.932-.546-5.235-1.572-9.151-3.655-3.279-1.743-32.177-17.909-36.604-47.99-.758-5.141-.578-9.77-.446-13.151.014-.373.03-.732.039-1.058-.003-.214-.009-.429-.014-.644-.026-1.17-.063-2.812.005-4.765-.023-9.411.254-18.656.522-27.606.364-12.139.707-23.605.32-34.788-2.045-59.048-11.576-106.537-29.995-149.451-1.97-4.591-4.182-9.191-6.523-14.061-5.54-11.525-11.821-24.588-15.978-40.236-9.034-34.005-6.611-73.375-4.472-108.109.364-5.929.709-11.53.978-16.844.175-3.475.294-8.441.42-13.699.485-20.289,1.054-36.363,3.418-49.01-.109-21.239,10.524-34.55,15.364-40.61,16.882-21.136,51.311-46.712,76.029-56.617,28.534-13.774,60.162-20.696,96.632-21.154.307-.003,3.865-.002,3.865-.002l1.59-.007c.458,0,.915.004,1.372.013,23.716.492,44.338,3.445,63.011,9.023,30.273,7.52,67.549,28.402,93.097,52.199l1.233,1.146c5.327,4.939,12.623,11.704,18.561,20.561,9.643,14.381,11.7,28.142,11.1,38.823,1.852,14.47,2.189,29.3,2.517,43.693.128,5.631.249,10.949.459,15.976.171,4.105.43,8.328.705,12.798.384,6.261.781,12.734.961,19.388.038,1.361.022,2.554.011,3.344l-.005.421c.01.456.013.94.009,1.428.006.549.005,1.099,0,1.649l-.002.253c.01,2.507.005,5.079.002,7.651-.002.659-.003,1.317-.004,1.976.334,1.629.63,3.577.759,5.756.678,11.375.457,25.033.023,34.015-1.588,32.866-13.561,58.324-24.124,80.785-4.363,9.277-8.484,18.04-11.766,26.978-10.309,28.076-16.795,57.096-19.285,86.277-.058,2.601-.342,5.135-.835,7.578-.082,2.555-.359,4.942-.787,7.168-.005.231-.01.461-.014.688-.054,3.804-.302,7.247-.52,10.284-.129,1.798-.252,3.503-.307,4.944v.083c.007.464.011.926.01,1.39.177,4.078-.098,7.954-.822,11.62.232,12.088.124,24.186.02,35.893-.087,9.671-.168,18.827-.075,28.019.007.043.014.087.02.13.512,3.345,1.464,9.572.498,17.513-1.594,13.118-8.976,37.27-40.493,51.635-13.506,6.156-27.909,8.993-38.947,10.777-17.289,2.793-37.574,4.27-58.654,4.27h-.005Z"/>
  <path class="cls-7" d="M911.154,0v911.154H0V0h911.154ZM189.527,71.184c-64.58,6.155-112.205,57.612-118.38,121.42l.037,198.017c-1.518,63.863-.105,129.087,0,193.086.071,43.293-2.903,92.305-.036,134.841,2.679,39.753,27.414,80.426,60.543,101.845,1.712,1.107,2.651,1.674,4.449,2.669,1.478.818,1.799,1.083,3.559,1.78.454.179,1.005.962,1.78.89h.89c.074.862-.36,1.115.552,1.849,2.715,2.184,15.278,6.838,19.234,8.173,10.874,3.672,22.164,5.823,33.602,6.884,59.897-.267,119.843.357,179.739,0l342.165.037c65.973-5.947,119.28-61.56,123.237-127.686,2.91-48.63-2.255-100.156-.037-149.078-.352-102.606.47-205.266,0-307.87-.161-35.284,3.055-70.624-9.788-104.106-17.415-45.4-58.436-77.139-106.776-82.751-1.09-.127-2.191-.851-2.669-.89-.586-.048-1.191.038-1.78,0-.295-.019-.594.016-.89,0-.885-.048-1.783.036-2.669,0-77.937-3.132-160.049.063-238.466,0-1.483-.001-2.966.001-4.449,0-.89,0-1.78,0-2.669,0-6.217-.005-12.469-.001-18.686,0-3.55,0-7.127-.003-10.678,0-1.483.001-2.966-.001-4.449,0-14.816.012-29.674-.015-44.49,0-.89,0-1.78,0-2.669,0-1.186.001-2.373-.001-3.559,0-3.255.004-6.533-.004-9.788,0-.593,0-1.186,0-1.78,0-2.369.003-4.75-.003-7.118,0-14.52.018-29.081-.028-43.6,0-2.664.005-5.344-.005-8.008,0-4.735.01-9.502-.012-14.237,0-35.192.088-74.866-2.344-109.445,0l-2.669.89Z"/>
  <path class="cls-4" d="M131.69,820.394c1.935.791,5.12.069,4.449,2.669-1.798-.996-2.737-1.563-4.449-2.669Z"/>
  <path class="cls-2" d="M192.197,70.294c-.14.01-1.294.759-2.669.89l2.669-.89Z"/>
  <path class="cls-4" d="M141.478,825.733c-.775.072-1.326-.71-1.78-.89l1.78.89Z"/>
  <path class="cls-9" d="M712.729,417.654c12.458-53.465,5.355-116.046-17.796-165.503-.33-.705-.427-1.712-.89-2.669-.589-1.216-1.868-2.893-2.669-4.449-15.448-29.985-36.995-56.123-62.286-78.302l-.89-.89c-.316-.273-.574-.622-.89-.89l-.89-.89c-1.37-1.14-3.036-2.45-4.449-3.559-25.935-20.343-57.356-36.863-88.98-46.27-2.612-.777-5.709-1.229-8.008-2.669-.57-.077-1.218.091-1.78,0-43.803-7.103-68.615-12.058-114.212-5.212-109.747,16.478-210.862,119.963-215.067,232.606-.947,25.363-1.316,51.452,4.503,77.807,1.233,5.585,1.997,12.122,5.339,16.906,3.637,13.81,9.682,25.601,16.753,37.969,13.14,22.983,30.231,43.822,42.863,67.027,2.057,1.939,2.917,3.53,4.468,5.765,9.101,13.12,17.399,27.864,26.309,41.315,8.384,12.658,16.958,25.444,26.17,37.45.075,28.83-4.045,57.536-4.502,85.834-.094,5.812,1.631,10.3,3.612,15.603.419.729.994.775,1.78,2.669,2.27-.348,1.871,1.944,2.669,3.559,2.018,1.551,3.058,3.28,4.449,4.449,1.338,1.124,1.644,1.664,1.78,1.78,1.961,1.672,11.185,7.849,13.347,8.898,6.869,3.332,22.424,8.245,30.242,10.244,8.181,2.092,23.676,2.866,30.039,5.553,4.912,2.074,19.758,21.867,24.25,26.913,1.054,1.184,1.774,2.547,2.669,3.559.441.499,1.127,1.045,1.78,1.78,2.922,3.288,7.029,7.732,10.21,10.701,12.967,12.099,17.303,7.933,28.075-3.114,7.994-8.198,28.177-35.415,36.121-39.512,5.954-3.07,27.491-5.687,36.118-8.372,9.683-3.014,18.748-7.955,28.285-11.311,9.091-6.385,18.477-13.618,21.355-24.914,2.703-10.608-.302-22.571-.88-33.377-1.047-19.561-1.935-39.166-2.622-58.667.212-1.471,1.01-2.796,1.723-4.054,11.48-20.254,30.039-40.394,41.656-61.116,11.695-19.87,25.272-38.683,37.536-58.117,13.446-21.306,28.175-42.751,36.482-66.735.672-1.94,2.476-5.633,2.669-7.118.074-.571-.091-1.218,0-1.78,1.052-2.342,3.023-6.597,3.559-8.898ZM218.868,366.44c-.11-.734-.023-1.436.12-2.105-.144.669-.23,1.371-.12,2.105.064.425.226.779.43,1.099-.203-.32-.366-.674-.43-1.099ZM219.31,363.04c.157-.626.277-1.22.221-1.781.057.561-.064,1.154-.221,1.781ZM235.897,344.662c.308-.646.345-1.3-.105-1.746.45.446.413,1.1.105,1.746ZM317.043,571.957c1.081,8.504,1.891,17.038,2.436,25.584-.545-8.546-1.355-17.08-2.436-25.584ZM630.867,371.385c-1.932,37.519-23.197,64.231-36.273,97.641-12.411,31.711-20.406,65.059-23.343,99.004-.083.958.306,2.252-.89,2.669.109,1.427.045,3.008,0,4.449-.041,1.318.222,2.523-.89,3.559.147,2.012.031,4.196,0,6.229-.077,5.044-.723,10.045-.89,15.127-.029.888.017,1.781,0,2.669-.036,1.834.513,3.786-.89,5.339.135,2.052-.044,4.166,0,6.229.473,22.076-.317,44.234-.037,66.327.049,3.835,1.429,6.969.848,11.458-2.913,22.483-36.625,28.783-54.77,31.533-28.268,4.285-62.287,4.777-90.624,2.787-18.712-1.314-39.023-2.995-56.511-9.779-1.69-.655-3.17-.698-5.339-1.78-7.336-3.659-18.245-12.87-19.575-21.355-.337-2.146-.051-5.651,0-8.008.038-1.769-.119-3.58,0-5.339-.108-21.783,1.686-43.582.881-65.391-2.151-58.27-11.449-112.36-35.709-165.386-7.704-16.839-17.212-31.562-22.354-49.719-9.541-33.689-4.328-79.311-2.434-114.574.844-15.705.402-48.633,4.449-62.286-1.219-8.951,2.111-14.09,7.551-20.478,14.349-16.853,47.253-39.712,68.082-47.147,28.675-13.225,59.262-18.315,90.76-18.686l.454-.885,1.326.885c.593-.001,1.187-.003,1.78,0,.125-1.339,2.545-1.339,2.669,0,20.133.392,40.211,2.468,59.616,8.008,28.542,6.432,63.45,25.712,85.433,44.922,9.985,8.725,23.393,19.557,20.453,34.27,3.173,19.062,2.681,41.684,3.559,61.396.471,10.574,1.472,21.392,1.78,32.033.034,1.185-.033,2.374,0,3.559.008.296-.007.593,0,.89.014.592-.002,1.187,0,1.78.02,4.735-.014,9.502,0,14.237.124,1.421.846,2.876.89,3.559.576,9.074.47,21.13,0,30.253Z"/>
  <path class="cls-8" d="M289.185,288.295h33.812c-1.736,18.785-3.88,37.621-3.565,56.529.189,1.251-.513,1.48,1.365,1.347,1.11-.079,7.178-2.558,8.365-3.216,1.44-.798,2.555-3.068,3.647-3.519,1.189-.491,2.541.649,3.514.059,1.017-.617,4.202-4.945,6.282-6.232,1.92-1.188,3.882-1.006,5.283-1.882.206-.129,3.185-4.866,3.594-1.651.222,1.745-.98,5.841.868,6.61l2.678-48.045h131.69c-.497,2.687,1.363,1.723,3.074,1.78,8.814.294,17.774.05,26.562-.003,3.663,3.184,1.857,2.077.847,5.167-1.788,5.471-2.286,3.352-3.35,5.497-1.182,2.382.773,5.782-4.001,5.364-.347,3.158,3.233,2.765,4.769,3.553,2.862,1.468-1.632,1.903-2.574,2.607-.305.228-4.752,5.521-4.836,5.893-.471,2.09,4.193,2.25,3.529,4.841-1.045.204-3.979-.364-4.395.061-.255.261-1.674,6.049-1.829,7.062-3.673.662-3.651-1.178-4.446,4.443l4.451.011c.152-1.429-.216-3.076-.005-4.454,2.535-.457,2.726-3.321,6.224-2.665.305,2.446-2.383,2.344-3.391,4.163-.655,1.182-2.925,8.449-2.429,9.186.416.617,1.947.917,2.637,1.84,3.724,4.985-1.593,4.706-2.653,7.884-.929,2.785.243,6.144-.523,8.376-.51,1.486-2.812,1.457-3.294,2.942-.464,1.429.296,3.716-.261,4.628-.199.326-2.395.638-3.374,1.503-3.166,2.798-1.944,5.099-2.958,7.733-.998,2.591-3.284,5.016-3.301,8.371-.012,2.409,1.81,2.676,1.759,4.762-4.76-.623-1.738,1.79-1.868,4.793-.239,5.533-2.377,7.402-6.978,9.948-1.517.84-6.756,1.557-4.503,3.946,1.063,1.127,4.453-2.562.889,6.228,9.246,1.479-3.008,5.72-3.414,6.372-.72,1.153.375,5.878-.734,8.549-.717,1.725-3.827,1.742-3.872,4.206l5.352.453c-1.802,5.468-3.505,16.041-5.846,20.403-1.012,1.885-4.371,4.556-6.093,7.254-6.361,9.963-8.092,17.592-17.889,25.712-13.13,10.884-29.114,13.75-43.049,21.017-3.812,1.988-7.805,6.661-11.361,9.105-12.014,8.256-23.58,10.62-37.661,13.507-.364,1.344.346,1.473.873,2.228,5.464,7.833,18.932,13.254,16.924,25.342,1.349.366,1.477-.349,2.232-.873,5.215-3.613,7.766-8.778,11.56-12.464,8.029-7.8,7.669-.479,9.337,6.223-3.499.195-2.824,1.784.89,1.78.593,0,1.186,0,1.78,0-.188.264.16,1.917-.461,2.633-1.194,1.373-3.276,1.774-3.639,3.542-.491,2.397,2.139,4.042,1.033,5.429-3.418,2.295-7.855,1.192-11.42,1.938-4.889,1.022-2.639,4.269-3.351,7.327-3.938,16.917-1.658,43.57-1.737,61.883-.113,25.996,1.55,54.445,0,80.082-.071,1.181.064,2.384.005,3.563-4.457.147-9.055-.599-13.352.886-1.69-.655-3.17-.698-5.339-1.78-1.046-3.324-.057-6.805,0-9.788.506-26.665-.568-54.147-.89-80.972-.221-18.464-1.317-36.948-1.098-55.446.204-2.234-2.788-2.549-3.206-3.841-.792-2.443.679-6.026-.598-8.329-.612-1.103-4.409-2.638-5.492-3.847-1.369-1.529-2.046-4.822-2.946-6.221-1.435-2.231-3.269-.166-3.248,2.311.089,10.85,3.94,24.521,3.953,35.777.003,2.309-.814,11.751-2.05,12.924-.989.938-3.055.572-3.182,1.373-.237,1.503.926,4.142.999,6.131.916,25.092-.141,50.408-1.817,75.225-.108-21.783,1.686-43.582.881-65.391-2.151-58.27-11.449-112.36-35.709-165.386-7.704-16.839-17.212-31.562-22.354-49.719-9.541-33.689-4.328-79.311-2.434-114.574h7.118ZM351.915,338.123v.89c.578-.297.578-.593,0-.89ZM320.328,347.911c-3.568-.588-1.043,6.392-1.822,8.496l1.822,9.3v-17.796ZM352.588,348.783c0-.607-.492-1.099-1.099-1.099s-1.099.492-1.099,1.099.492,1.099,1.099,1.099,1.099-.492,1.099-1.099ZM380.616,377.062c3.791-3.765-2.563-12.833-8.303-8.746-6.671,4.75,3.414,13.601,8.303,8.746ZM455.574,373.722c-6.707.289-9.379,7.496-13.43,11.031-4.687,4.09-17.28,8.739-14.843,17.662.104.38,2.509,6.355,2.705,6.663.72,1.131,3.358.522,3.394,4.217.041,4.116-7.366,10.009-8.071,14.694,1.051.97,8.69-2.513,10.307-2.663,2.674-.249,4.583,1.714,7.444.427,5.904-2.657,5.612-5.571,8.206-9.617,1.388-2.166,10.483-13.107,8.744-14.83-2.551-1.388-9.907,1.096-10.639-1.436-.389-1.347,3.906-9.124,4.975-10.812.757-1.196,2.661-1.638,2.859-2.499.612-2.663-4.364-9.086-1.651-12.836ZM352.124,449.502c-9.068,1.878-7.019,16.646,4.741,12.797,6.467-2.117,3.799-14.565-4.741-12.797Z"/>
  <path class="cls-6" d="M592.606,365.707c5.725.802,1.223-4.755,1.134-6.478-.419-8.153,6.633-11.976,7.363-18.395.294-2.586-1.091-4.719-1.092-6.887-.001-1.963,1.361-3.505,1.476-5.27.127-1.95-1.115-4.053-.95-5.108.141-.902,2.37-.817,2.629-1.951.463-2.028-2.587-4.202,2.83-6.213.15-4.693-6.08-2.14-4.486-7.531l4.438.891c-.726-2.033,3.329-10.399,4.418-11.17,2.124-1.504,4.965.797,6.578.56,1.046-.153.965-3.517,3.234-2.739.584.432,2.485,7.688,3.164,8.858,1.052,1.811,4.051,2.119,4.689,4.209,1.035,3.392-.395,9.407.163,13.177l1.784-1.332c.034,1.185-.033,2.374,0,3.559l-.872.445.872.445c.014.592-.002,1.187,0,1.78-1.351,2.568-1.229,8.081-.955,11.227.134,1.539.935,2.787.955,3.01.123,1.421.846,2.876.89,3.559-2.349.777-1.477,1.915-1.398,3.537.36,7.339.415,14.492.492,21.835.016,1.504-.568,3.957.905,4.881-1.932,37.519-23.197,64.231-36.273,97.641-12.411,31.711-20.406,65.059-23.343,99.004-3.616-.444-.949,1.893-.89,2.669.109,1.427.045,3.008,0,4.449-3.79-.536-.95,2.728-.89,3.559.147,2.012.031,4.196,0,6.229-2.928,3.344-2.253,11.049-.89,15.127-.029.888.017,1.781,0,2.669-3.865-.654-.974,4.054-.89,5.339.135,2.052-.044,4.166,0,6.229-1.911,1.262-.225,4.525-1.078,6.051-.31.556-3.726,1.42-4.056,3.396-.196,1.173,1.079,2.836.638,4.231-.539,1.706-3.589,1.053-4.29,2.925-.415,1.106-.025,2.664-.113,3.862-2.828-.69-2.651,3.451,0,2.669-.027.888.014,1.78,0,2.669-1.817-.695-1.706,1.796-2.335,1.835-1.211.075-2.693-1.311-3.892-.562-.822.513-1.126,2.772-2.333,3.141-1.802.551-3.21-1.993-4.299-1.746-.981.222-1.485,3.094-2.843,3.477-1.619.457-5.017-2.012-7.785.019-.768.563-.357,1.955-.793,2.419-1.336,1.423-6.176,4.412-6.41,4.744-.768,1.09-.138,2.944-1.333,4.034-1.878,1.714-7.739,1.028-8.024,1.318-.309.315.327,3.27.013,3.574-.216.209-2.768-.274-3.897.115-1.297.447-1.176,2.478-2.023,2.618-2.82.466-9.102-4.249-9.215,2.591,1.876-.457,6.4,1.577,4.447,3.562-1.211,1.231-6.097-2.7-8.001-1.769l.881,4.425c-1.225.881-5.995.699-6.227.912-.413.379,3.44,8.608-3.968,8.053-.195-.015-1.319-3.406-3.143-1.822-.396.343,1.438,3.843.889,4.438-.138.149-2.625.147-3.94.989-1,.639-1.404,2.452-1.845,2.597-4.121,1.359-.454-5.357-4.444-3.574-1.722.77-1.088,3.765-1.809,5.308-.408.873-1.832,1.69-2.59,2.795-1.079,1.573.603,3.517-3.395,2.354-.938-.273-1.908-1.785-2.868-1.572-2.451,5.872-1.849,2.606-5.293,2.65-.596.008-.494,1.387-1.137,1.828-.785.537-2.347.484-2.76,1.043-.725.985.093,4.12-1.657,5.237-3.759,2.399-11.793,1.765-15.22,3.182-1.205.498-1.438,2.155-2.528,2.836-2.384,1.49-7.399,1.7-7.465,4.586-17.236-.404-34.515-1.445-51.608-3.559,1.55-25.637-.113-54.086,0-80.082,4.43,2.818,7.567,5.178,12.945,1.828,4.002-2.493.79-5.979,1.674-7.192,1.159-1.59,4.555-.287,5.911-1.244,1.032-.728.515-3.257,1.694-4.533,1.203-1.303,5.006-1.343,6.047-2.405,1.43-1.459.424-5.401,2.354-7.026,1.609-1.355,3.128.082,4.938-.361,2.363-.579,2.935-3.411,4.498-4.385,1.515-.945,4.342-.956,5.336-1.799,1.72-1.459.272-4.165,1.069-5.618.551-1.005,5.124-2.502,5.76-3.126.87-.855,1.799-5.501,2.18-5.818.762-.634,5.706.653,6.107-1.496.206-1.103-1.775-2.175-1.782-3.523-.011-1.998,3.842-7.892,6.202-5.768.575.518-1.429,3.636,2.688,2.645.664-3.789-.687-6.398-1.771-9.788,1.712-.52,2.526,1.961,3.89,1.72,1.104-.195,2.326-2.987,3.866-3.386,1.748-.453,4.2,1.081,4.644.757.729-.532,1.586-6.181,2.281-7.096,1.23-1.619,7.409-3.957,8.248-4.653.829-.688.665-3.171,1.551-4.237,1.735-2.088,7.783-.823,7.548-6.244,1.802-.519,16.469-14.084,18.379-16.321,5.326-6.238,5.476-18.191,17.423-15.471,4.593,1.046,10.805,9.722,13.609,3.279.998-2.293-1.682-6.551-2.178-9.377-.434-2.473.448-5.457-.253-7.756-.399-1.31-2.227-1.924-2.519-3.778-.345-2.187,1.022-4.191.758-6.006-.58-3.993-6.856-4.645-4.357-10.908.944-2.366,11.535-12.727,14.016-14.479,7.062-4.99,19.631-2.755,22.315-12.387,2.862-10.272,4.129-15.35,9.118-25.139,6.032.189,3.723-6.046,4.58-7,.267-.297,1.756-.136,2.446-.606,2.765-1.881.999-4.805,1.507-7.361.385-1.932,2.073-3.914,2.17-5.131.191-2.397-2.611-3.093-1.442-6.632,1.371-4.153,5.149-2.666,6.581-3.698.606-.437.469-2.088,1.012-2.735,1.516-1.806,3.441-1.597,3.326-5.396-.172-5.663-1.932-2.763.758-9.498.409-1.025.312-3.397.444-3.521.475-.445,3.224.481,4.291-.17.445-.272,4.222-8.242,4.406-9.451.417-2.738-.45-2.604-.715-3.756-.15-.654-.802-3.398-.89-3.559ZM532.759,560.74c-5.509,1.113-3.573,7.013.875,7.696,6.293.966,6.84-9.255-.875-7.696ZM513.147,600.344c8.38-7.115-8.136-14.796-8.708-5.519-.319,5.177,5.54,8.209,8.708,5.519ZM472.63,642.26c1.038.377,4.826-.98,5.222-2.944,1.607-7.966-10.415-7.239-7.911-.125.068.192,2.497,2.999,2.689,3.069ZM441.977,654.149c-3.558,1.034-4.047,9.408,1.585,9.721,9.834.546,5.923-11.902-1.585-9.721Z"/>
  <path class="cls-11" d="M518.753,147.707c28.542,6.432,63.45,25.712,85.433,44.922,9.985,8.725,23.393,19.557,20.453,34.27-.315-1.891-1.66-4.375-.899-7.118-5.693,4.092-13.175,4.658-20.056,4.489-16.712-.41-33.708-6.494-50.669-4.563-3.667.417-15.843,8.504-20.598,10.625-16.769,7.477-34.892,10.599-52.777,4.982-12.844-4.034-23.245-14.793-36.315-18.852-22.303-6.927-45.171,5.213-67.397,6.868-23.741,1.768-55.972.922-80.107.048-2.659-.096-5.198-1.287-7.92-.987-.19.039-1.201,2.993-1.387,3.62-1.219-8.951,2.111-14.09,7.551-20.478,14.349-16.853,47.253-39.712,68.082-47.147,10.695-3.818,25.234-8.521,37.167-11.327,38.733-9.109,81.488-7.903,119.438.65Z"/>
  <path class="cls-10" d="M286.515,226.009c.186-.627,1.197-3.581,1.387-3.62,2.722-.3,5.261.891,7.92.987,24.135.874,56.366,1.72,80.107-.048,22.225-1.655,45.093-13.794,67.397-6.868,13.07,4.059,23.472,14.819,36.315,18.852,17.885,5.617,36.008,2.495,52.777-4.982,4.755-2.12,16.931-10.207,20.598-10.625,16.961-1.93,33.957,4.154,50.669,4.563,6.881.169,14.363-.397,20.056-4.489-.762,2.743.584,5.227.899,7.118,3.173,19.062,2.681,41.684,3.559,61.396h-153.935c.497-2.687-1.36-1.723-3.074-1.78-19.692-.658-39.515.494-59.207-.004-.935-2.321,1.581-1.421,1.79-2.35.371-1.648-.251-3.878-.011-5.649,12.723,4.461,3.426-1.663,2.759-4.186-.83-3.136,3.494-3.886,4.121-4.952.587-.997-.026-3.095,1.054-3.839,1.252-.863,3.706.287,4.609-.898,2.715-3.562-3.103-6.48-1.866-7.481,9.15,1.202,2.81-6.05,3.548-11.571.598-.599,4.05,1.279,3.548-1.315-.679-3.509-4.044-.942-3.541-4.021,3.342.96,3.323-2.103,2.531-4.76-.859-2.883-5.161.329-6.076-.595-1.035-1.046,2.661-3.445-5.693-2.545-12.476,1.344-25.588,6.087-38.332,7.042l-86.794-.04-4.444,48.944h-7.118c.844-15.705.402-48.633,4.449-62.286Z"/>
  <path class="cls-3" d="M587.267,288.295c-.496,2.695,1.362,1.712,3.074,1.78,4.432.175,13.249-.868,16.764-.017,1.023.248,1.435,3.256,2.958,3.521.909.158,2.189-1.514,3.519-1.738,2.042-.344,4.314,1.014,5.228.793,1.01-.244,1.081-2.083,1.554-2.369,1.634-.989,5.903,1.222,6.945-1.971h.89c.471,10.574,1.472,21.392,1.78,32.033l-1.784,1.332c-.559-3.77.872-9.785-.163-13.177-.638-2.09-3.637-2.398-4.689-4.209-.679-1.17-2.58-8.426-3.164-8.858-2.269-.778-2.188,2.585-3.234,2.739-1.613.237-4.454-2.064-6.578-.56-1.089.771-5.144,9.137-4.418,11.17l-4.438-.891c-1.594,5.391,4.637,2.838,4.486,7.531-5.417,2.01-2.366,4.184-2.83,6.213-.259,1.134-2.488,1.049-2.629,1.951-.166,1.056,1.077,3.158.95,5.108-.115,1.766-1.477,3.308-1.476,5.27.001,2.168,1.386,4.301,1.092,6.887-.731,6.419-7.782,10.242-7.363,18.395.089,1.723,4.591,7.28-1.134,6.478-3.631-6.665-18.062-11.012-20.53-17.285-3.058-7.771,1.785-12.55,5.382-18.758-1.498-2.033-3.948-.918-6.169-1.811-4.09-1.645-12.073-9.854-16.378-8.327-1.354.48-8.735,15.102-9.254,17.473-.522,2.388,0,4.76-.625,7.379-1.001,4.189-5.38,6.414-6.32,10.59-1.16,5.155,1.183,13.659.434,20.011-1.179,10.007-13.521,25.242-21.722,30.776-3.371,2.274-7.195,2.218-10.642,3.641-3.497,1.444-7.664,4.406-12.054,6.141-.943.372-2.803.044-3.906.81-.935.649-.416,1.71-.543,1.86-.273.323-.616.579-.89.89-2.891-.266-4.713,1.51-4.449,4.449-.84.916-2.174,2.07-2.669,2.669-5.544-.074-2.614,2.72-2.669,3.559-.152,2.329-1.518,2.766-1.78,3.559l-5.352-.453c.045-2.463,3.155-2.48,3.872-4.206,1.11-2.671.014-7.396.734-8.549.407-.651,12.661-4.892,3.414-6.372,3.564-8.79.174-5.101-.889-6.228-2.253-2.389,2.986-3.106,4.503-3.946,4.601-2.546,6.739-4.415,6.978-9.948.13-3.002-2.892-5.416,1.868-4.793.051-2.087-1.771-2.353-1.759-4.762.017-3.355,2.303-5.78,3.301-8.371,1.014-2.633-.208-4.935,2.958-7.733.979-.865,3.175-1.177,3.374-1.503.557-.912-.203-3.199.261-4.628.482-1.485,2.784-1.456,3.294-2.942.766-2.232-.407-5.591.523-8.376,1.061-3.178,6.378-2.898,2.653-7.884-.69-.923-2.221-1.224-2.637-1.84-.497-.737,1.774-8.004,2.429-9.186,1.008-1.819,3.697-1.716,3.391-4.163-3.498-.656-3.69,2.208-6.224,2.665-.211,1.378.156,3.025.005,4.454l-4.451-.011c.795-5.621.773-3.781,4.446-4.443.155-1.014,1.574-6.802,1.829-7.062.416-.425,3.351.144,4.395-.061.664-2.591-4-2.751-3.529-4.841.084-.372,4.53-5.664,4.836-5.893.942-.704,5.436-1.139,2.574-2.607-1.536-.788-5.116-.394-4.769-3.553,4.774.418,2.819-2.982,4.001-5.364,1.065-2.146,1.562-.027,3.35-5.497,1.01-3.09,2.816-1.983-.847-5.167-8.788.053-17.748.297-26.562.003-1.711-.057-3.571.907-3.074-1.78h100.547Z"/>
  <path class="cls-3" d="M567.692,617.52c.473,22.076-.317,44.234-.037,66.327.049,3.835,1.429,6.968.848,11.458-2.913,22.483-36.625,28.783-54.77,31.533-28.268,4.285-62.287,4.777-90.624,2.787-18.712-1.314-39.023-2.995-56.511-9.779,4.297-1.485,8.895-.738,13.352-.886.059-1.179-.076-2.383-.005-3.563,17.094,2.115,34.372,3.155,51.608,3.559,32.997.774,89.971,2.665,117.725-16.19,3.56-2.418,6.522-4.469,8.171-8.735,3.345-8.652,1.164-39.312,1.346-50.708.014-.889-.027-1.781,0-2.669s-.064-1.789,0-2.669c.087-1.198-.302-2.756.113-3.862.702-1.872,3.751-1.219,4.29-2.925.441-1.395-.834-3.059-.638-4.231.33-1.976,3.745-2.84,4.056-3.396.853-1.527-.833-4.789,1.078-6.051Z"/>
  <path class="cls-3" d="M341.683,683.365c1.677-24.817,2.733-50.133,1.817-75.225-.073-1.989-1.236-4.628-.999-6.131.126-.8,2.193-.435,3.182-1.373,1.237-1.173,2.053-10.615,2.05-12.924-.013-11.256-3.864-24.927-3.953-35.777-.02-2.477,1.813-4.542,3.248-2.311.9,1.399,1.577,4.693,2.946,6.221,1.082,1.208,4.88,2.744,5.492,3.847,1.277,2.303-.194,5.886.598,8.329.419,1.292,3.411,1.607,3.206,3.841-.219,18.497.876,36.981,1.098,55.446-2.983-.568-1.082,2.304-2.649,4.019-1.041,1.14-7.699,3.196-8.044,4.617,1.726,8.812-3.334,62.284.255,65.875l11.328,6.461c-.057,2.983-1.046,6.464,0,9.788-7.336-3.659-18.245-12.87-19.576-21.355,1.499-1.659,1.499-6.349,0-8.008.039-1.769-.119-3.58,0-5.339Z"/>
  <path class="cls-7" d="M452.908,139.698c.593-.007,1.186.002,1.78,0s1.186-.003,1.78,0c.889.005,1.78-.017,2.669,0,20.133.392,40.211,2.468,59.617,8.008-37.949-8.552-80.705-9.759-119.438-.65-11.933,2.806-26.471,7.51-37.167,11.327,28.675-13.225,59.262-18.315,90.759-18.686Z"/>
  <path class="cls-3" d="M630.867,374.605c-1.474-.924-.889-3.377-.905-4.881-.077-7.343-.133-14.496-.492-21.835-.079-1.622-.951-2.76,1.398-3.537.576,9.074.47,21.129,0,30.253Z"/>
  <path class="cls-3" d="M568.581,603.284c-1.363-4.077-2.038-11.782.89-15.127-.077,5.044-.723,10.045-.89,15.127Z"/>
  <path class="cls-3" d="M629.977,340.793c-.019-.222-.821-1.47-.955-3.01-.274-3.147-.397-8.66.955-11.227.02,4.735-.014,9.502,0,14.237Z"/>
  <path class="cls-3" d="M568.581,605.953c-.036,1.834.513,3.786-.89,5.339-.085-1.285-2.975-5.993.89-5.339Z"/>
  <path class="cls-8" d="M341.683,696.712c-.337-2.146-.051-5.651,0-8.008,1.499,1.659,1.499,6.349,0,8.008Z"/>
  <path class="cls-3" d="M570.361,578.369c-.041,1.318.222,2.523-.89,3.559-.061-.831-2.901-4.095.89-3.559Z"/>
  <path class="cls-3" d="M571.251,571.251c-.083.958.306,2.252-.89,2.669-.059-.776-2.726-3.113.89-2.669Z"/>
  <path class="cls-3" d="M629.977,324.777l-.872-.445.872-.445c.008.296-.007.593,0,.89Z"/>
  <path class="cls-5" d="M592.606,365.707c.088.161.74,2.905.89,3.559-2.147,1.246-2.204,3.422-4.131,5.212-4.916,4.568-12.746,2.126-17.892,10.582-3.806,6.255-2.654,11.206-3.979,17.376-.499,2.325-2.643,4.231-3.403,6.379-3.375,9.539,6.578,12.28,6.156,15.009-.149.964-4.187,5.786-5.093,7.455-.59,1.085-.656,2.225-1.021,2.942-4.989,9.789-6.256,14.867-9.118,25.139-2.684,9.632-15.253,7.398-22.315,12.387-2.481,1.753-13.072,12.113-14.016,14.479-2.498,6.263,3.777,6.914,4.357,10.908.264,1.815-1.103,3.818-.758,6.006.292,1.854,2.12,2.468,2.519,3.778.701,2.299-.181,5.283.253,7.756.496,2.826,3.176,7.084,2.178,9.377-2.804,6.442-9.015-2.233-13.609-3.279-11.947-2.721-12.098,9.233-17.423,15.471-1.91,2.237-16.577,15.802-18.379,16.321-.991.286-2.896-.042-4.489.376-3.08.809-4.581,3.892-7.933.916-2.956-2.625-.987-6.382-2.272-9.288-.79-1.786-4.549-3.481-5.379-6.189-1.776-5.793,1.975-6.691-5.734-10.283-5.543-2.583-9.775-3.165-14.248,1.764-4.625,5.096-2.211,9.469-10.668,12.471-6.645,2.359-6.222,1.096-12.523,5.268-4.027,2.667-13.267,2.454-15.056,4.965-.593,0-1.186,0-1.78,0-.211-.596-.749-1.214-.89-1.78-1.668-6.702-1.308-14.023-9.337-6.223-3.795,3.686-6.346,8.852-11.56,12.464-.755.523-.883,1.239-2.232.873,2.009-12.088-11.459-17.509-16.924-25.342-.527-.755-1.237-.884-.873-2.228,14.081-2.887,25.647-5.251,37.661-13.507,3.556-2.443,7.549-7.117,11.361-9.105,13.935-7.266,29.918-10.133,43.049-21.017,9.796-8.12,11.528-15.749,17.889-25.712,1.723-2.698,5.082-5.369,6.093-7.254,2.341-4.362,4.044-14.935,5.846-20.403.261-.794,1.627-1.23,1.78-3.559,1.787-.512,1.883-2.607,2.669-3.559.495-.599,1.829-1.753,2.669-2.669,1.339-1.461,2.888-2.675,4.449-4.449.273-.311.617-.567.89-.89,1.799-.23,3.682-.889,4.449-2.669,4.39-1.735,8.557-4.697,12.054-6.141,3.446-1.423,7.271-1.367,10.642-3.641,8.201-5.534,20.544-20.768,21.722-30.776.748-6.352-1.594-14.855-.434-20.011.939-4.176,5.318-6.4,6.32-10.59.626-2.619.103-4.991.625-7.379.518-2.371,7.9-16.993,9.254-17.473,4.305-1.527,12.287,6.681,16.378,8.327,2.221.893,4.671-.222,6.169,1.811-3.597,6.208-8.44,10.987-5.382,18.758,2.469,6.273,16.899,10.62,20.53,17.285Z"/>
  <path class="cls-11" d="M289.185,288.295l4.444-48.944,86.794.04c12.744-.955,25.856-5.699,38.332-7.042,8.353-.9,4.657,1.5,5.693,2.545.915.924,5.217-2.288,6.076.595.792,2.657.812,5.721-2.531,4.76-.503,3.079,2.862.512,3.541,4.021.502,2.595-2.949.716-3.548,1.315-.737,5.522,5.602,12.774-3.548,11.571-1.237,1.001,4.581,3.919,1.866,7.481-.903,1.185-3.357.034-4.609.898-1.08.744-.468,2.843-1.054,3.839-.627,1.066-4.951,1.815-4.121,4.952.667,2.523,9.965,8.646-2.759,4.186-.24,1.771.381,4.001.011,5.649-.209.929-2.726.029-1.79,2.35,19.693.498,39.515-.653,59.207.004,1.714.057,3.571-.907,3.074,1.78h-185.078Z"/>
  <path class="cls-3" d="M477.822,552.565c.236,5.421-5.812,4.156-7.548,6.244-.886,1.066-.722,3.549-1.551,4.237-.839.696-7.019,3.034-8.248,4.653-.695.916-1.553,6.565-2.281,7.096-.444.324-2.896-1.21-4.644-.757-1.54.399-2.762,3.191-3.866,3.386-1.364.241-2.178-2.24-3.89-1.72,1.084,3.39,2.435,5.999,1.771,9.788-4.118.991-2.113-2.128-2.688-2.645-2.36-2.124-6.213,3.77-6.202,5.768.007,1.349,1.988,2.42,1.782,3.523-.401,2.15-5.345.862-6.107,1.496-.381.317-1.31,4.964-2.18,5.818-.636.624-5.209,2.121-5.76,3.126-.797,1.453.651,4.159-1.069,5.618-.994.844-3.821.854-5.336,1.799-1.563.975-2.134,3.806-4.498,4.385-1.81.444-3.329-.993-4.938.361-1.93,1.625-.924,5.567-2.354,7.026-1.041,1.062-4.844,1.102-6.047,2.405-1.179,1.276-.662,3.806-1.694,4.533-1.356.957-4.752-.346-5.911,1.244-.884,1.213,2.328,4.7-1.674,7.192-5.379,3.35-8.516.991-12.945-1.828.079-18.314-2.201-44.966,1.737-61.883.712-3.058-1.538-6.305,3.351-7.327,3.565-.745,8.003.357,11.42-1.938,1.106-1.387-1.524-3.032-1.033-5.429.362-1.768,2.445-2.168,3.639-3.542.622-.715.273-2.369.461-2.633,1.788-2.511,11.028-2.298,15.056-4.965,6.301-4.172,5.878-2.91,12.523-5.268,8.457-3.002,6.043-7.375,10.668-12.471,4.473-4.928,8.705-4.346,14.248-1.764,7.71,3.592,3.958,4.489,5.734,10.283.83,2.707,4.589,4.403,5.379,6.189,1.285,2.905-.684,6.663,2.272,9.288,3.351,2.976,4.853-.107,7.933-.916,1.593-.418,3.498-.09,4.489-.376ZM420.875,597.945c-.199-2.313.403-4.449-1.543-6.269-3.696-3.456-11.005-2.307-11.643,3.371-.407,3.614,3.201,6.111,6.068,7.347.266.115.338.784.89,0,.573.067,1.234-.099,1.78,0,1.537.28,1.62,1.966,4.072-.833,2.334-2.665.451-2.761.377-3.616Z"/>
  <path class="cls-10" d="M355.03,288.295l-2.678,48.045c-1.848-.769-.646-4.866-.868-6.61-.409-3.215-3.388,1.522-3.594,1.651-1.402.877-3.363.694-5.283,1.882-2.08,1.287-5.265,5.615-6.282,6.232-.973.59-2.325-.55-3.514-.059-1.092.451-2.207,2.721-3.647,3.519-1.187.658-7.255,3.137-8.365,3.216-1.879.134-1.177-.095-1.365-1.347-.316-18.908,1.829-37.745,3.565-56.529h32.033ZM347.916,323.882c3.651.079,3.651-4.519,0-4.44v4.44Z"/>
  <path class="cls-5" d="M455.574,373.722c-2.714,3.75,2.262,10.173,1.651,12.836-.198.861-2.102,1.303-2.859,2.499-1.068,1.689-5.364,9.465-4.975,10.812.732,2.532,8.089.048,10.639,1.436,1.739,1.724-7.356,12.664-8.744,14.83-2.594,4.046-2.302,6.96-8.206,9.617-2.861,1.288-4.77-.676-7.444-.427-1.618.151-9.257,3.633-10.307,2.663.705-4.685,8.112-10.579,8.071-14.694-.037-3.695-2.674-3.086-3.394-4.217-.196-.308-2.601-6.283-2.705-6.663-2.437-8.923,10.157-13.572,14.843-17.662,4.051-3.535,6.723-10.741,13.43-11.031Z"/>
  <path class="cls-6" d="M360.368,627.308c.322,26.825,1.396,54.307.89,80.972l-11.328-6.461c-3.589-3.591,1.471-57.063-.255-65.875.345-1.421,7.003-3.477,8.044-4.617,1.566-1.715-.334-4.588,2.649-4.019Z"/>
  <path class="cls-10" d="M352.124,449.502c8.54-1.768,11.207,10.68,4.741,12.797-11.76,3.849-13.809-10.919-4.741-12.797Z"/>
  <path class="cls-10" d="M380.616,377.062c-4.889,4.855-14.974-3.996-8.303-8.746,5.74-4.087,12.094,4.981,8.303,8.746Z"/>
  <path class="cls-10" d="M320.328,347.911v17.796l-1.822-9.3c.779-2.104-1.746-9.083,1.822-8.496Z"/>
  <path class="cls-3" d="M396.85,550.785c.141.565.679,1.184.89,1.78-3.714.004-4.389-1.585-.89-1.78Z"/>
  <circle class="cls-10" cx="351.489" cy="348.783" r="1.099"/>
  <path class="cls-10" d="M351.915,338.123c.578.297.578.593,0,.89v-.89Z"/>
  <path class="cls-5" d="M558.794,643.324c-.182,11.396,1.999,42.055-1.346,50.708-1.649,4.266-4.611,6.317-8.171,8.735-27.753,18.855-84.728,16.964-117.725,16.19.066-2.887,5.081-3.096,7.465-4.586,1.09-.681,1.323-2.338,2.528-2.836,3.427-1.417,11.461-.783,15.22-3.182,1.75-1.117.931-4.252,1.657-5.237.412-.559,1.975-.506,2.76-1.043.643-.44.54-1.82,1.137-1.828,3.444-.043,2.842,3.223,5.293-2.65.96-.214,1.93,1.299,2.868,1.572,3.998,1.163,2.315-.781,3.395-2.354.758-1.105,2.181-1.922,2.59-2.795.721-1.543.088-4.538,1.809-5.308,3.989-1.783.323,4.933,4.444,3.574.44-.145.845-1.958,1.845-2.597,1.316-.841,3.803-.839,3.94-.989.549-.595-1.285-4.094-.889-4.438,1.824-1.583,2.948,1.807,3.143,1.822,7.408.556,3.555-7.674,3.968-8.053.232-.213,5.002-.031,6.227-.912l-.881-4.425c1.904-.931,6.79,2.999,8.001,1.769,1.954-1.985-2.571-4.019-4.447-3.562.113-6.84,6.395-2.125,9.215-2.591.847-.14.726-2.171,2.023-2.618,1.129-.389,3.681.094,3.897-.115.313-.304-.322-3.259-.013-3.574.285-.29,6.146.396,8.024-1.318,1.195-1.09.564-2.944,1.333-4.034.234-.332,5.074-3.321,6.41-4.744.436-.464.025-1.856.793-2.419,2.768-2.03,6.167.438,7.785-.019,1.358-.383,1.863-3.255,2.843-3.477,1.089-.247,2.496,2.298,4.299,1.746,1.207-.369,1.511-2.628,2.333-3.141,1.199-.749,2.682.637,3.892.562.629-.039.518-2.53,2.335-1.835Z"/>
  <path class="cls-3" d="M593.496,369.266c.264,1.152,1.132,1.017.715,3.756-.184,1.21-3.961,9.18-4.406,9.451-1.066.651-3.816-.275-4.291.17-.132.124-.035,2.496-.444,3.521-2.69,6.735-.93,3.835-.758,9.498.115,3.798-1.81,3.589-3.326,5.396-.543.647-.405,2.298-1.012,2.735-1.432,1.032-5.209-.455-6.581,3.698-1.169,3.539,1.633,4.235,1.442,6.632-.097,1.217-1.786,3.198-2.17,5.131-.508,2.555,1.258,5.48-1.507,7.361-.69.47-2.179.309-2.446.606-.857.955,1.452,7.19-4.58,7,.365-.717.432-1.856,1.021-2.942.906-1.669,4.944-6.49,5.093-7.455.422-2.729-9.53-5.47-6.156-15.009.76-2.148,2.904-4.055,3.403-6.379,1.325-6.17.173-11.121,3.979-17.376,5.145-8.456,12.976-6.013,17.892-10.582,1.927-1.79,1.984-3.966,4.131-5.212Z"/>
  <path class="cls-8" d="M513.147,600.344c-3.168,2.69-9.027-.342-8.708-5.519.572-9.276,17.088-1.596,8.708,5.519Z"/>
  <path class="cls-8" d="M441.977,654.149c7.508-2.181,11.419,10.267,1.585,9.721-5.632-.313-5.143-8.687-1.585-9.721Z"/>
  <path class="cls-3" d="M532.759,560.74c7.715-1.558,7.168,8.662.875,7.696-4.448-.683-6.384-6.584-.875-7.696Z"/>
  <path class="cls-3" d="M472.63,642.26c-.192-.07-2.621-2.877-2.689-3.069-2.504-7.114,9.518-7.84,7.911.125-.396,1.964-4.184,3.32-5.222,2.944Z"/>
  <path class="cls-5" d="M558.794,637.986c-.064.88.027,1.784,0,2.669-2.651.781-2.828-3.359,0-2.669Z"/>
  <path class="cls-6" d="M627.308,288.295c-1.042,3.193-5.311.982-6.945,1.971-.473.286-.544,2.125-1.554,2.369-.914.22-3.185-1.137-5.228-.793-1.33.224-2.609,1.896-3.519,1.738-1.522-.265-1.935-3.274-2.958-3.521-3.515-.851-12.332.192-16.764.017-1.712-.068-3.57.915-3.074-1.78h40.041Z"/>
  <path class="cls-8" d="M489.389,419.095c-1.561,1.774-3.11,2.988-4.449,4.449-.264-2.939,1.558-4.715,4.449-4.449Z"/>
  <path class="cls-8" d="M482.271,426.214c-.787.952-.883,3.047-2.669,3.559.055-.839-2.875-3.633,2.669-3.559Z"/>
  <path class="cls-8" d="M494.728,415.536c-.767,1.781-2.65,2.439-4.449,2.669.127-.15-.393-1.211.543-1.86,1.104-.766,2.964-.437,3.906-.81Z"/>
  <path class="cls-8" d="M413.756,602.394c-2.867-1.236-6.475-3.733-6.068-7.347.639-5.678,7.947-6.827,11.643-3.371,1.946,1.82,1.345,3.956,1.543,6.269l-4.449,4.449c-.546-.099-1.207.067-1.78,0h-.89Z"/>
  <path class="cls-6" d="M416.426,602.394l4.449-4.449c.073.855,1.957.951-.377,3.616-2.452,2.799-2.535,1.113-4.072.833Z"/>
  <path class="cls-6" d="M413.756,602.394h.89c-.552.784-.623.115-.89,0Z"/>
  <path class="cls-8" d="M347.916,323.882v-4.44c3.651-.079,3.651,4.519,0,4.44Z"/>
</svg>